<svg width="135" height="26" viewBox="0 0 135 26" fill="none" xmlns="http://www.w3.org/2000/svg">
<path d="M0.254883 5.10043V0H2.07291C2.46972 0 2.79846 0.0722228 3.05912 0.216669C3.31979 0.361114 3.51487 0.55869 3.64438 0.809395C3.77388 1.05844 3.83863 1.33903 3.83863 1.65116C3.83863 1.96496 3.77305 2.24721 3.64189 2.49792C3.51238 2.74696 3.31647 2.94454 3.05414 3.09064C2.79348 3.23509 2.46557 3.30731 2.07042 3.30731H0.820214V2.65481H2.00068C2.25139 2.65481 2.45478 2.61165 2.61084 2.52531C2.76691 2.43732 2.88147 2.31777 2.95452 2.16669C3.02758 2.0156 3.0641 1.84376 3.0641 1.65116C3.0641 1.45857 3.02758 1.28756 2.95452 1.13813C2.88147 0.988706 2.76608 0.871656 2.60835 0.786981C2.45229 0.702306 2.24641 0.659968 1.99072 0.659968H1.02443V5.10043H0.254883Z" fill="#A2A2A2"/>
<path d="M6.2444 5.17763C5.88578 5.17763 5.57281 5.09545 5.3055 4.93108C5.0382 4.76671 4.83066 4.53676 4.68289 4.24123C4.53513 3.94569 4.46124 3.60035 4.46124 3.2052C4.46124 2.80839 4.53513 2.46139 4.68289 2.1642C4.83066 1.867 5.0382 1.63622 5.3055 1.47185C5.57281 1.30748 5.88578 1.2253 6.2444 1.2253C6.60303 1.2253 6.91599 1.30748 7.1833 1.47185C7.45061 1.63622 7.65814 1.867 7.80591 2.1642C7.95368 2.46139 8.02756 2.80839 8.02756 3.2052C8.02756 3.60035 7.95368 3.94569 7.80591 4.24123C7.65814 4.53676 7.45061 4.76671 7.1833 4.93108C6.91599 5.09545 6.60303 5.17763 6.2444 5.17763ZM6.24689 4.55253C6.47933 4.55253 6.67193 4.4911 6.82468 4.36824C6.97742 4.24538 7.09032 4.08184 7.16338 3.87762C7.23809 3.67341 7.27545 3.44844 7.27545 3.20271C7.27545 2.95865 7.23809 2.73451 7.16338 2.53029C7.09032 2.32441 6.97742 2.15922 6.82468 2.03469C6.67193 1.91017 6.47933 1.84791 6.24689 1.84791C6.01279 1.84791 5.81854 1.91017 5.66413 2.03469C5.51138 2.15922 5.39765 2.32441 5.32294 2.53029C5.24988 2.73451 5.21336 2.95865 5.21336 3.20271C5.21336 3.44844 5.24988 3.67341 5.32294 3.87762C5.39765 4.08184 5.51138 4.24538 5.66413 4.36824C5.81854 4.4911 6.01279 4.55253 6.24689 4.55253Z" fill="#A2A2A2"/>
<path d="M9.57164 5.10043L8.44596 1.27511H9.2155L9.96513 4.08433H10.0025L10.7546 1.27511H11.5241L12.2713 4.07188H12.3086L13.0533 1.27511H13.8228L12.6996 5.10043H11.94L11.163 2.33853H11.1057L10.3287 5.10043H9.57164Z" fill="#A2A2A2"/>
<path d="M16.0617 5.17763C15.6848 5.17763 15.3603 5.09711 15.088 4.93606C14.8173 4.77335 14.6081 4.54506 14.4604 4.25119C14.3143 3.95566 14.2412 3.60948 14.2412 3.21267C14.2412 2.82084 14.3143 2.4755 14.4604 2.17665C14.6081 1.8778 14.814 1.64452 15.078 1.47683C15.3437 1.30914 15.6541 1.2253 16.0094 1.2253C16.2253 1.2253 16.4345 1.261 16.637 1.33239C16.8396 1.40378 17.0214 1.51585 17.1824 1.6686C17.3435 1.82135 17.4705 2.01975 17.5635 2.26381C17.6564 2.50622 17.7029 2.80092 17.7029 3.14792V3.41191H14.6621V2.85405H16.9732C16.9732 2.65813 16.9334 2.48463 16.8537 2.33355C16.774 2.1808 16.6619 2.06043 16.5175 1.97243C16.3747 1.88444 16.207 1.84044 16.0144 1.84044C15.8052 1.84044 15.6226 1.89191 15.4665 1.99485C15.3121 2.09612 15.1926 2.22895 15.1079 2.39332C15.0249 2.55603 14.9834 2.73285 14.9834 2.92378V3.35961C14.9834 3.6153 15.0282 3.83279 15.1179 4.01211C15.2092 4.19142 15.3362 4.32839 15.4989 4.42303C15.6616 4.51601 15.8517 4.56249 16.0692 4.56249C16.2103 4.56249 16.339 4.54257 16.4552 4.50272C16.5714 4.46122 16.6719 4.39979 16.7566 4.31843C16.8412 4.23708 16.906 4.13663 16.9508 4.01709L17.6556 4.1441C17.5992 4.35164 17.4979 4.53344 17.3518 4.68951C17.2073 4.84391 17.0255 4.96429 16.8064 5.05062C16.5889 5.1353 16.3407 5.17763 16.0617 5.17763Z" fill="#A2A2A2"/>
<path d="M18.5291 5.10043V1.27511H19.2489V1.88278H19.2887C19.3585 1.6769 19.4813 1.51502 19.6573 1.39714C19.835 1.2776 20.0359 1.21783 20.26 1.21783C20.3065 1.21783 20.3613 1.21949 20.4244 1.22281C20.4891 1.22613 20.5398 1.23028 20.5763 1.23526V1.94753C20.5464 1.93923 20.4933 1.93009 20.4169 1.92013C20.3405 1.90851 20.2642 1.9027 20.1878 1.9027C20.0118 1.9027 19.8549 1.94006 19.7171 2.01477C19.5809 2.08782 19.473 2.18993 19.3933 2.32109C19.3136 2.4506 19.2738 2.59836 19.2738 2.76439V5.10043H18.5291Z" fill="#A2A2A2"/>
<path d="M22.7324 5.17763C22.3555 5.17763 22.0309 5.09711 21.7586 4.93606C21.488 4.77335 21.2788 4.54506 21.131 4.25119C20.9849 3.95566 20.9119 3.60948 20.9119 3.21267C20.9119 2.82084 20.9849 2.4755 21.131 2.17665C21.2788 1.8778 21.4847 1.64452 21.7487 1.47683C22.0143 1.30914 22.3248 1.2253 22.6801 1.2253C22.8959 1.2253 23.1051 1.261 23.3077 1.33239C23.5102 1.40378 23.692 1.51585 23.8531 1.6686C24.0141 1.82135 24.1412 2.01975 24.2341 2.26381C24.3271 2.50622 24.3736 2.80092 24.3736 3.14792V3.41191H21.3328V2.85405H23.6439C23.6439 2.65813 23.604 2.48463 23.5243 2.33355C23.4447 2.1808 23.3326 2.06043 23.1881 1.97243C23.0454 1.88444 22.8777 1.84044 22.6851 1.84044C22.4759 1.84044 22.2932 1.89191 22.1372 1.99485C21.9828 2.09612 21.8632 2.22895 21.7786 2.39332C21.6955 2.55603 21.654 2.73285 21.654 2.92378V3.35961C21.654 3.6153 21.6989 3.83279 21.7885 4.01211C21.8798 4.19142 22.0068 4.32839 22.1695 4.42303C22.3323 4.51601 22.5224 4.56249 22.7399 4.56249C22.881 4.56249 23.0097 4.54257 23.1259 4.50272C23.2421 4.46122 23.3425 4.39979 23.4272 4.31843C23.5119 4.23708 23.5766 4.13663 23.6215 4.01709L24.3263 4.1441C24.2698 4.35164 24.1685 4.53344 24.0224 4.68951C23.878 4.84391 23.6962 4.96429 23.477 5.05062C23.2595 5.1353 23.0113 5.17763 22.7324 5.17763Z" fill="#A2A2A2"/>
<path d="M26.6318 5.17514C26.323 5.17514 26.0474 5.09628 25.805 4.93855C25.5642 4.77916 25.375 4.55253 25.2372 4.25866C25.101 3.96313 25.0329 3.60865 25.0329 3.19524C25.0329 2.78183 25.1018 2.42818 25.2396 2.13431C25.3791 1.84044 25.57 1.61547 25.8124 1.4594C26.0548 1.30333 26.3296 1.2253 26.6368 1.2253C26.8742 1.2253 27.0651 1.26515 27.2096 1.34484C27.3557 1.42287 27.4686 1.51419 27.5483 1.61879C27.6296 1.72339 27.6927 1.81553 27.7376 1.89523H27.7824V0H28.527V5.10043H27.7998V4.50521H27.7376C27.6927 4.58657 27.628 4.67955 27.5433 4.78414C27.4603 4.88874 27.3457 4.98006 27.1996 5.05809C27.0535 5.13613 26.8642 5.17514 26.6318 5.17514ZM26.7962 4.54008C27.0103 4.54008 27.1913 4.48363 27.3391 4.37073C27.4885 4.25617 27.6014 4.09761 27.6778 3.89506C27.7558 3.6925 27.7948 3.45674 27.7948 3.18777C27.7948 2.92212 27.7567 2.68968 27.6803 2.49044C27.6039 2.29121 27.4918 2.13597 27.3441 2.02473C27.1963 1.91349 27.0137 1.85787 26.7962 1.85787C26.572 1.85787 26.3852 1.91598 26.2358 2.0322C26.0864 2.14842 25.9735 2.30698 25.8971 2.50788C25.8224 2.70877 25.785 2.9354 25.785 3.18777C25.785 3.44345 25.8232 3.67341 25.8996 3.87762C25.976 4.08184 26.0889 4.24372 26.2383 4.36326C26.3894 4.48114 26.5754 4.54008 26.7962 4.54008Z" fill="#A2A2A2"/>
<path d="M31.5056 5.10043V0H33.3734C33.7354 0 34.0351 0.0597707 34.2725 0.179312C34.5099 0.297193 34.6876 0.457412 34.8054 0.659968C34.9233 0.860864 34.9823 1.08749 34.9823 1.33986C34.9823 1.55238 34.9432 1.73169 34.8652 1.8778C34.7872 2.02224 34.6826 2.13846 34.5514 2.22646C34.4219 2.31279 34.2791 2.37588 34.1231 2.41573V2.46554C34.2924 2.47384 34.4576 2.52863 34.6187 2.62991C34.7814 2.72953 34.9159 2.87148 35.0221 3.05578C35.1284 3.24007 35.1815 3.46421 35.1815 3.7282C35.1815 3.98886 35.1201 4.22296 34.9972 4.4305C34.876 4.63638 34.6884 4.79992 34.4344 4.92112C34.1803 5.04066 33.8558 5.10043 33.4606 5.10043H31.5056ZM32.2752 4.44046H33.3859C33.7545 4.44046 34.0185 4.36907 34.1778 4.22628C34.3372 4.0835 34.4169 3.90502 34.4169 3.69084C34.4169 3.52979 34.3763 3.38202 34.2949 3.24754C34.2135 3.11306 34.0973 3.00597 33.9462 2.92627C33.7968 2.84658 33.6192 2.80673 33.4133 2.80673H32.2752V4.44046ZM32.2752 2.20653H33.3062C33.4789 2.20653 33.6341 2.17333 33.7719 2.10692C33.9114 2.0405 34.0218 1.94753 34.1031 1.82799C34.1861 1.70678 34.2277 1.564 34.2277 1.39963C34.2277 1.18877 34.1538 1.01195 34.006 0.869165C33.8582 0.72638 33.6316 0.654987 33.3261 0.654987H32.2752V2.20653Z" fill="#A2A2A2"/>
<path d="M36.5052 6.53493C36.3939 6.53493 36.2927 6.5258 36.2013 6.50753C36.11 6.49093 36.0419 6.47267 35.9971 6.45274L36.1764 5.84258C36.3126 5.87911 36.4338 5.89488 36.54 5.8899C36.6463 5.88492 36.7401 5.84507 36.8215 5.77036C36.9045 5.69565 36.9775 5.57362 37.0406 5.40426L37.1328 5.15024L35.7331 1.27511H36.5301L37.4989 4.24372H37.5387L38.5075 1.27511H39.3069L37.7305 5.61097C37.6574 5.81021 37.5644 5.97873 37.4515 6.11653C37.3386 6.256 37.2042 6.3606 37.0481 6.43033C36.892 6.50006 36.711 6.53493 36.5052 6.53493Z" fill="#A2A2A2"/>
<path fill-rule="evenodd" clip-rule="evenodd" d="M115.877 4.59082L110.536 12.8621C110.417 13.0579 110.304 13.2486 110.197 13.4352C109.148 12.4335 107.781 11.8435 106.399 11.7807L112.1 4.67044H97.1914V8.07812H105.252L100.435 14.3692C101.254 14.1726 101.943 14.0088 102.926 14.0088C106.333 14.0088 108.299 15.811 108.299 18.1374C108.299 20.2999 106.366 22.2659 103.712 22.2659C102.008 22.2659 100.403 21.4467 99.1902 20.2999L96.2412 22.6591C98.24 24.8217 100.796 25.6736 103.581 25.6736C106.494 25.6736 108.709 24.5728 110.15 22.9827C111.396 24.5275 113.418 25.6737 116.237 25.6737C118.925 25.6737 120.992 24.6498 122.287 23.0319C123.611 24.5882 125.583 25.5755 127.785 25.5755C131.769 25.5755 134.999 22.3459 134.999 18.362C134.999 14.378 131.769 11.1484 127.785 11.1484C125.545 11.1484 123.543 12.1697 122.22 13.7721C121.035 12.3591 119.258 11.4532 117.089 11.4532C116.335 11.4532 115.942 11.5187 115.385 11.617L119.612 4.59082H115.877ZM112.24 18.4652C112.24 16.2698 114.042 14.4677 116.237 14.4677C118.432 14.4677 120.235 16.2698 120.235 18.4652C120.235 20.6605 118.432 22.4627 116.237 22.4627C114.042 22.4627 112.24 20.6605 112.24 18.4652ZM131.556 18.362C131.556 20.4445 129.868 22.1327 127.785 22.1327C125.703 22.1327 124.015 20.4445 124.015 18.362C124.015 16.2794 125.703 14.5912 127.785 14.5912C129.868 14.5912 131.556 16.2794 131.556 18.362Z" fill="#2A3342"/>
<circle cx="132.54" cy="7.04974" r="2.45916" fill="url(#paint0_linear_5665_22116)"/>
<path d="M19.3729 17.2725C18.6647 18.2287 17.5492 18.813 16.2921 18.813C14.2913 18.813 12.4853 17.1309 12.4853 14.9708C12.4853 12.8106 14.2913 11.1286 16.2921 11.1286C17.5492 11.1286 18.6293 11.7129 19.3375 12.7398L21.0373 11.465C19.7979 9.90685 18.0627 9.18091 16.2921 9.18091C12.9634 9.18091 10.3252 11.7129 10.3252 14.9708C10.3252 18.2287 12.9634 20.7606 16.2921 20.7606C18.0627 20.7606 19.7979 20.0347 21.0373 18.4765L19.3729 17.2725Z" fill="url(#paint1_linear_5665_22116)"/>
<path d="M21.7277 16.2456C21.7277 18.512 23.4629 20.7606 26.4552 20.7606C29.4475 20.7606 31.1827 18.512 31.1827 16.2456C31.1827 13.9792 29.4475 11.7306 26.4552 11.7306C23.4629 11.7306 21.7277 13.9792 21.7277 16.2456ZM23.6754 16.2456C23.6754 14.7052 24.844 13.4658 26.4552 13.4658C28.0664 13.4658 29.235 14.7052 29.235 16.2456C29.235 17.786 28.0664 19.0254 26.4552 19.0254C24.844 19.0254 23.6754 17.786 23.6754 16.2456Z" fill="url(#paint2_linear_5665_22116)"/>
<path d="M32.5239 20.5304H34.3653V15.1832C34.3653 14.1563 35.0205 13.572 35.7818 13.572C36.6671 13.572 37.3222 14.1032 37.3222 15.4311V20.5304H39.1637V15.4311C39.1637 14.1032 39.8188 13.572 40.7041 13.572C41.4654 13.572 42.1206 14.1563 42.1206 15.1832V20.5304H43.962V15.1655C43.962 12.9877 42.5101 11.7306 40.828 11.7306C39.5355 11.7306 38.5971 12.3503 38.2607 13.2533H38.2252C37.8888 12.3503 36.9504 11.7306 35.6579 11.7306C33.9758 11.7306 32.5239 12.9877 32.5239 15.1655V20.5304Z" fill="url(#paint3_linear_5665_22116)"/>
<path d="M45.9507 20.5304H47.7921V15.1832C47.7921 14.1563 48.4473 13.572 49.2086 13.572C50.0939 13.572 50.749 14.1032 50.749 15.4311V20.5304H52.5905V15.4311C52.5905 14.1032 53.2456 13.572 54.1309 13.572C54.8922 13.572 55.5474 14.1563 55.5474 15.1832V20.5304H57.3888V15.1655C57.3888 12.9877 55.9369 11.7306 54.2548 11.7306C52.9623 11.7306 52.0239 12.3503 51.6875 13.2533H51.652C51.3156 12.3503 50.3772 11.7306 49.0847 11.7306C47.4026 11.7306 45.9507 12.9877 45.9507 15.1655V20.5304Z" fill="url(#paint4_linear_5665_22116)"/>
<path d="M66.035 17.8037C65.3976 18.6536 64.5477 19.1317 63.5561 19.1317C62.2636 19.1317 61.0419 18.1932 60.9357 16.883H68.0535V16.5466C68.0535 13.2002 65.3976 11.7306 63.6093 11.7306C60.6169 11.7306 58.8818 13.9792 58.8818 16.2456C58.8818 18.512 60.6169 20.7606 63.6093 20.7606C65.1497 20.7429 66.5662 19.9638 67.5931 18.6713L66.035 17.8037ZM60.9357 15.3603C61.2367 14.0855 62.1928 13.3595 63.3614 13.3595C64.53 13.3595 65.5038 14.0501 65.8933 15.3603H60.9357Z" fill="url(#paint5_linear_5665_22116)"/>
<path d="M69.5363 20.5304H71.3778V14.8645C71.3778 14.0855 71.9798 13.572 72.6526 13.572C72.8296 13.572 73.166 13.6782 73.3431 13.8199L73.9982 11.9962C73.7503 11.8368 73.3962 11.7306 72.989 11.7306C72.2453 11.7306 71.6079 12.1909 71.3069 12.8992H71.2715V11.9607H69.5363V20.5304Z" fill="url(#paint6_linear_5665_22116)"/>
<path d="M82.3882 13.8022C81.5561 12.5982 80.3698 11.7306 78.546 11.7306C75.5537 11.7306 73.8185 13.9792 73.8185 16.2456C73.8185 18.512 75.5537 20.7606 78.546 20.7606C80.175 20.7606 81.6269 19.893 82.3882 18.689L80.777 17.7329C80.2812 18.512 79.5553 19.0254 78.546 19.0254C76.9348 19.0254 75.7662 17.786 75.7662 16.2456C75.7662 14.7052 76.9348 13.4658 78.546 13.4658C79.5907 13.4658 80.2812 13.9969 80.777 14.7583L82.3882 13.8022Z" fill="url(#paint7_linear_5665_22116)"/>
<path d="M90.2693 17.8037C89.6319 18.6536 88.782 19.1317 87.7905 19.1317C86.498 19.1317 85.2762 18.1932 85.17 16.883H92.2878V16.5466C92.2878 13.2002 89.6319 11.7306 87.8436 11.7306C84.8513 11.7306 83.1161 13.9792 83.1161 16.2456C83.1161 18.512 84.8513 20.7606 87.8436 20.7606C89.384 20.7429 90.8005 19.9638 91.8275 18.6713L90.2693 17.8037ZM85.17 15.3603C85.471 14.0855 86.4271 13.3595 87.5957 13.3595C88.7643 13.3595 89.7381 14.0501 90.1277 15.3603H85.17Z" fill="url(#paint8_linear_5665_22116)"/>
<path d="M9.36528 17.6112C8.83243 19.4762 7.21667 20.7379 4.94429 20.7379C4.32251 20.733 3.70781 20.6054 3.13541 20.3625C2.56301 20.1196 2.04415 19.7662 1.60857 19.3225C1.17298 18.8787 0.829217 18.3534 0.596975 17.7766C0.364732 17.1998 0.24857 16.5829 0.255147 15.9611C0.255147 13.314 2.35048 11.1482 4.94429 11.1482C7.14619 11.1482 8.99228 12.5336 9.43576 14.983L2.97272 17.7058C3.19662 18.0126 3.49072 18.2613 3.83044 18.4312C4.17015 18.601 4.5456 18.6871 4.92538 18.6821C5.68857 18.6821 6.47238 18.3383 6.86085 17.6164L9.36528 17.6112ZM6.73709 14.0256C6.51513 13.763 6.23722 13.5534 5.92374 13.4121C5.61026 13.2708 5.26914 13.2015 4.92538 13.2091C3.57605 13.2091 2.49314 14.2731 2.43986 15.8373L6.73709 14.0256Z" fill="url(#paint9_linear_5665_22116)"/>
<defs>
<linearGradient id="paint0_linear_5665_22116" x1="130.195" y1="5.21729" x2="135.904" y2="3.16606" gradientUnits="userSpaceOnUse">
<stop stop-color="#EC5E2A"/>
<stop offset="1" stop-color="#EC5E2A" stop-opacity="0.49"/>
</linearGradient>
<linearGradient id="paint1_linear_5665_22116" x1="12.2233" y1="10.6564" x2="244.769" y2="38.1916" gradientUnits="userSpaceOnUse">
<stop stop-color="#EC5E2A"/>
<stop offset="1" stop-color="#EC5E2A" stop-opacity="0.76"/>
</linearGradient>
<linearGradient id="paint2_linear_5665_22116" x1="12.2233" y1="10.6564" x2="244.769" y2="38.1916" gradientUnits="userSpaceOnUse">
<stop stop-color="#EC5E2A"/>
<stop offset="1" stop-color="#EC5E2A" stop-opacity="0.76"/>
</linearGradient>
<linearGradient id="paint3_linear_5665_22116" x1="12.2233" y1="10.6564" x2="244.769" y2="38.1916" gradientUnits="userSpaceOnUse">
<stop stop-color="#EC5E2A"/>
<stop offset="1" stop-color="#EC5E2A" stop-opacity="0.76"/>
</linearGradient>
<linearGradient id="paint4_linear_5665_22116" x1="12.2233" y1="10.6564" x2="244.769" y2="38.1916" gradientUnits="userSpaceOnUse">
<stop stop-color="#EC5E2A"/>
<stop offset="1" stop-color="#EC5E2A" stop-opacity="0.76"/>
</linearGradient>
<linearGradient id="paint5_linear_5665_22116" x1="12.2233" y1="10.6564" x2="244.769" y2="38.1916" gradientUnits="userSpaceOnUse">
<stop stop-color="#EC5E2A"/>
<stop offset="1" stop-color="#EC5E2A" stop-opacity="0.76"/>
</linearGradient>
<linearGradient id="paint6_linear_5665_22116" x1="12.2233" y1="10.6564" x2="244.769" y2="38.1916" gradientUnits="userSpaceOnUse">
<stop stop-color="#EC5E2A"/>
<stop offset="1" stop-color="#EC5E2A" stop-opacity="0.76"/>
</linearGradient>
<linearGradient id="paint7_linear_5665_22116" x1="12.2233" y1="10.6564" x2="244.769" y2="38.1916" gradientUnits="userSpaceOnUse">
<stop stop-color="#EC5E2A"/>
<stop offset="1" stop-color="#EC5E2A" stop-opacity="0.76"/>
</linearGradient>
<linearGradient id="paint8_linear_5665_22116" x1="12.2233" y1="10.6564" x2="244.769" y2="38.1916" gradientUnits="userSpaceOnUse">
<stop stop-color="#EC5E2A"/>
<stop offset="1" stop-color="#EC5E2A" stop-opacity="0.76"/>
</linearGradient>
<linearGradient id="paint9_linear_5665_22116" x1="0.467491" y1="12.3702" x2="26.8741" y2="12.7931" gradientUnits="userSpaceOnUse">
<stop stop-color="#EC5E2A"/>
<stop offset="1" stop-color="#EC5E2A" stop-opacity="0.76"/>
</linearGradient>
</defs>
</svg>
